# Blender v2.79 (sub 0) OBJ File: ''
# www.blender.org
mtllib cube.mtl
o Cube
v -1.221500 -0.452857 0.194223
v -1.221500 1.547143 0.194223
v -1.221500 -0.452857 -1.805777
v -1.221500 1.547143 -1.805777
v 0.778500 -0.452857 0.194223
v 0.778500 1.547143 0.194223
v 0.778500 -0.452857 -1.805777
v 0.778500 1.547143 -1.805777
vn -1.0000 0.0000 0.0000
vn 0.0000 0.0000 -1.0000
vn 1.0000 0.0000 0.0000
vn 0.0000 0.0000 1.0000
vn 0.0000 -1.0000 0.0000
vn 0.0000 1.0000 0.0000
usemtl None
s off
f 1//1 2//1 4//1 3//1
f 3//2 4//2 8//2 7//2
f 7//3 8//3 6//3 5//3
f 5//4 6//4 2//4 1//4
f 3//5 7//5 5//5 1//5
f 8//6 4//6 2//6 6//6
